<svg xmlns="http://www.w3.org/2000/svg" viewBox="0 0 200 200" role="img" aria-label="Flor de la Vida">
  <title>Flor de la Vida</title>
  <desc>Favicon con Flor de la Vida exacta (19 círculos) para coincidir con el símbolo del homepage.</desc>
  <g fill="none" stroke="#CBA135" stroke-width="5" stroke-linecap="round" stroke-linejoin="round">
    <!-- 19 circles: hex radius = 2; circle radius R ≈ 31.333; centers computed en malla triangular -->
    <!-- u=-2 -->
    <circle cx="37.333" cy="100.000" r="31.333"/>
    <circle cx="53.000" cy="127.129" r="31.333"/>
    <circle cx="68.667" cy="154.259" r="31.333"/>
    <!-- u=-1 -->
    <circle cx="53.000" cy="72.871" r="31.333"/>
    <circle cx="68.667" cy="100.000" r="31.333"/>
    <circle cx="84.333" cy="127.129" r="31.333"/>
    <circle cx="100.000" cy="154.259" r="31.333"/>
    <!-- u=0 -->
    <circle cx="68.667" cy="45.741" r="31.333"/>
    <circle cx="84.333" cy="72.871" r="31.333"/>
    <circle cx="100.000" cy="100.000" r="31.333"/>
    <circle cx="115.667" cy="127.129" r="31.333"/>
    <circle cx="131.333" cy="154.259" r="31.333"/>
    <!-- u=1 -->
    <circle cx="100.000" cy="45.741" r="31.333"/>
    <circle cx="115.667" cy="72.871" r="31.333"/>
    <circle cx="131.333" cy="100.000" r="31.333"/>
    <circle cx="147.000" cy="127.129" r="31.333"/>
    <!-- u=2 -->
    <circle cx="131.333" cy="45.741" r="31.333"/>
    <circle cx="147.000" cy="72.871" r="31.333"/>
    <circle cx="162.667" cy="100.000" r="31.333"/>
    <!-- Outer ring enmarca todo el patrón -->
    <circle cx="100" cy="100" r="94"/>
  </g>
</svg>
